#!OML:ASF F:\VICON\USERDATA\Patient Classification 1\PLAYGROUND\JustinFriday\JustinFriday.ASF
:FULLY-SPECIFIED
:DEGREES
1600
root 15.1203 17.8475 52.9363 -176.883 14.2749 -172.728
lowerback 14.8199 -3.66222 5.86491
upperback 5.47931 -3.29638 1.18259
thorax -2.76301 -1.31601 -1.50915
lowerneck -19.3468 -6.58169 -11.6125
upperneck 17.9586 -9.31978 17.6695
head 10.4289 -3.03293 6.93951
rclavicle -3.51849e-014 -1.03368e-014
rhumerus 45.3596 36.8916 -80.0649
rradius 54.9607
rwrist -7.19306
rhand -25.8746 -11.4524
rfingers 7.12502
rthumb 0.666891 -41.4311
lclavicle -3.51849e-014 -1.03368e-014
lhumerus 41.2694 11.7749 58.7323
lradius 27.7163
lwrist -11.9931
lhand -3.92782 -12.3634
lfingers 7.12502
lthumb 21.8233 16.4262
rfemur -17.452 8.38949 27.3621
rtibia 38.489
rfoot -16.4935 15.1819
rtoes 18.4361
lfemur -15.2795 7.02011 -10.1425
ltibia 51.4033
lfoot -9.51895 -17.3439
ltoes 6.30034
1601
root 15.0955 17.8393 52.9672 -176.792 14.8984 -172.83
lowerback 14.6698 -3.69681 5.55304
upperback 5.47074 -3.4118 1.17615
thorax -2.68307 -1.38042 -1.32795
lowerneck -18.8322 -6.56573 -11.8153
upperneck 18.2975 -9.35437 17.9012
head 10.4833 -3.04466 7.08086
rclavicle 4.25399e-014 -1.78906e-014
rhumerus 43.6065 37.6464 -80.3634
rradius 57.2721
rwrist -7.22427
rhand -26.5356 -11.4399
rfingers 7.12502
rthumb 0.0284791 -41.4197
lclavicle 4.25399e-014 -1.78906e-014
lhumerus 40.772 12.6166 58.6513
lradius 27.8583
lwrist -12.4156
lhand -4.25442 -12.3494
lfingers 7.12502
lthumb 21.5096 16.4763
rfemur -18.0039 8.77816 27.1208
rtibia 39.013
rfoot -16.4649 15.5249
rtoes 18.5374
lfemur -13.7535 6.18146 -10.6819
ltibia 49.2527
lfoot -12.3722 -17.092
ltoes 7.01967
1602
root 15.071 17.8246 53.0035 -176.811 15.4185 -172.958
lowerback 14.6979 -3.81263 5.19867
upperback 5.46547 -3.62101 1.158
thorax -2.69732 -1.49071 -1.11088
lowerneck -18.1477 -6.54362 -12.11
upperneck 18.4195 -9.38092 18.3188
head 10.4432 -3.05295 7.30411
rclavicle 4.81059e-014 -2.22639e-014
rhumerus 42.6344 38.4258 -80.0585
rradius 59.2332
rwrist -8.25373
rhand -26.949 -11.7126
rfingers 7.12502
rthumb -0.370826 -41.692
lclavicle 4.81059e-014 -2.22639e-014
lhumerus 40.2044 13.5018 58.4624
lradius 27.9866
lwrist -12.9655
lhand -4.7812 -12.2985
lfingers 7.12502
lthumb 21.0036 16.5842
rfemur -18.5136 9.15819 26.9013
rtibia 39.6061
rfoot -16.426 15.6839
rtoes 18.6843
lfemur -12.264 5.38968 -11.2398
ltibia 47.0991
lfoot -14.4025 -16.7079
ltoes 9.71257
1603
root 15.048 17.8102 53.0425 -177.071 15.856 -173.278
lowerback 15.0015 -3.98419 4.63505
upperback 5.45882 -3.91163 1.08926
thorax -2.85179 -1.64184 -0.801
lowerneck -17.6519 -6.5429 -12.2926
upperneck 18.8731 -9.43647 18.4498
head 10.5372 -3.08051 7.40795
rclavicle 3.8763e-014 2.78299e-015
rhumerus 39.8318 39.2654 -81.1983
rradius 61.9217
rwrist -7.94315
rhand -26.2635 -12.2326
rfingers 7.12502
rthumb 0.291235 -42.2122
lclavicle 3.8763e-014 2.78299e-015
lhumerus 39.5688 14.3026 58.0276
lradius 28.0426
lwrist -13.2257
lhand -5.10712 -12.0751
lfingers 7.12502
lthumb 20.6905 16.842
rfemur -18.8501 9.3049 26.5496
rtibia 40.2309
rfoot -16.6303 15.7348
rtoes 17.9414
lfemur -10.7458 4.49072 -12.0304
ltibia 45.0626
lfoot -16.3569 -15.7465
ltoes 11.7469
1604
root 15.0279 17.788 53.0828 -177.117 16.397 -173.401
lowerback 15.0981 -4.14337 4.2377
upperback 5.44791 -4.1816 1.05464
thorax -2.90288 -1.78219 -0.561352
lowerneck -17.4148 -6.44894 -12.4277
upperneck 19.5511 -9.35108 18.472
head 10.7267 -3.03325 7.49716
rclavicle 2.50469e-014 3.18055e-015
rhumerus 38.7029 40.1428 -81.1205
rradius 63.6001
rwrist -8.85139
rhand -26.1025 -12.2938
rfingers 7.12502
rthumb 0.446751 -42.273
lclavicle 2.50469e-014 3.18055e-015
lhumerus 38.9834 15.1427 57.467
lradius 28.0114
lwrist -13.3501
lhand -5.3435 -11.8205
lfingers 7.12502
lthumb 20.4633 17.1211
rfemur -19.3049 9.53376 26.3826
rtibia 40.8124
rfoot -16.9013 15.8204
rtoes 17.6055
lfemur -9.50458 3.62684 -12.6818
ltibia 43.2621
lfoot -18.788 -13.5866
ltoes 10.1454
1605
root 15.0107 17.7626 53.1274 -177.201 16.9945 -173.652
lowerback 15.1745 -4.29405 3.69942
upperback 5.47716 -4.46442 0.96439
thorax -2.89154 -1.92753 -0.301579
lowerneck -17.159 -6.31048 -12.6134
upperneck 20.0663 -9.18769 18.5693
head 10.8474 -2.95377 7.63061
rclavicle 2.16675e-014 -3.06128e-014
rhumerus 36.9329 41.1389 -81.4465
rradius 65.4456
rwrist -9.38014
rhand -25.9363 -12.0673
rfingers 7.12502
rthumb 0.607284 -42.0461
lclavicle 2.16675e-014 -3.06128e-014
lhumerus 38.3013 15.8813 56.6261
lradius 28.0776
lwrist -13.2869
lhand -5.91175 -11.6228
lfingers 7.12502
lthumb 19.9172 17.3766
rfemur -19.7037 9.87971 26.0713
rtibia 41.3376
rfoot -17.0883 16.0008
rtoes 18.6951
lfemur -8.43179 3.76356 -13.2892
ltibia 41.7457
lfoot -20.3833 -12.0653
ltoes 8.83599
1606
root 14.9981 17.7446 53.1743 -177.331 17.5 -173.934
lowerback 15.2986 -4.48576 3.12788
upperback 5.51468 -4.80185 0.866381
thorax -2.89152 -2.09883 -0.0188989
lowerneck -16.7806 -6.23229 -12.8991
upperneck 20.4724 -9.09683 18.7231
head 10.9266 -2.91997 7.78805
rclavicle -4.09496e-014 -1.51076e-014
rhumerus 34.3511 42.0938 -82.2794
rradius 67.636
rwrist -9.56092
rhand -24.8314 -12.3015
rfingers 7.12502
rthumb 1.67438 -42.2747
lclavicle -4.09496e-014 -1.51076e-014
lhumerus 37.5885 16.6685 55.7273
lradius 28.1609
lwrist -13.078
lhand -6.37183 -11.662
lfingers 7.12502
lthumb 19.4749 17.3827
rfemur -19.9804 10.0995 25.7593
rtibia 41.6928
rfoot -17.2655 16.2046
rtoes 19.3462
lfemur -7.67059 3.91884 -13.9155
ltibia 40.5932
lfoot -21.4627 -10.4801
ltoes 8.05105
